<svg xmlns="http://www.w3.org/2000/svg" width="512" height="512" viewBox="0 0 512 512">
  <rect width="512" height="512" fill="#686121" />
  <g transform="translate(196.87 83.65) scale(0.60175)" fill="#aed473">
    <path d="M125.904 3.97022H196.527L196.437 460.862C196.434 478.237 192.409 495.121 185.055 510.395C172.842 535.757 150.115 553.456 122.631 559.372C78.2876 568.919 32.0493 552.891 11.5476 510.605C3.97167 495.632 0.916315 479.404 0.0130695 462.527L0 3.90051L70.6754 3.9949L70.6725 426.223C70.9629 431.661 71.6933 436.461 73.5231 441.188C77.5456 451.81 87.1168 457.702 98.3884 457.497C107.393 457.334 115.61 453.952 120.592 446.238C123.344 440.637 125.874 434.531 125.875 427.625L125.904 3.97022Z" />
  </g>
</svg>
